<?xml version="1.0" encoding="utf-8"?>
<!-- Generator: Adobe Illustrator 21.1.0, SVG Export Plug-In . SVG Version: 6.00 Build 0)  -->
<svg version="1.1" id="Clouds" xmlns="http://www.w3.org/2000/svg" xmlns:xlink="http://www.w3.org/1999/xlink" x="0px" y="0px"
	 viewBox="0 0 1000 250" style="enable-background:new 0 0 1000 250;" xml:space="preserve">
<style type="text/css">
	.st0{fill:#F3F3F3;fill-opacity:0.8;}
	.st1{fill:#EAEAEB;fill-opacity:0.8;}
	.st2{opacity:0.7;fill:#F3F3F3;fill-opacity:0.8;enable-background:new    ;}
	.st3{opacity:0.5;fill:#D2D1D3;}
	.st4{opacity:0.5;fill:#D2D1D3;enable-background:new    ;}
</style>
<g id="Clouds-Right">
	<path class="st0" d="M927,154.1L927,154.1l-7.3,0c0-0.1,0-0.1,0-0.2c0-4.6-3.7-8.3-8.3-8.3h-47.7c-4.5,0-8.3,3.7-8.3,8.3
		c0,0.1,0,0.1,0,0.2h-3.6c-8.4,0-15.1,6.8-15.1,15.2c0,8.4,6.8,15.2,15.1,15.2h0h74.6h0h0h0.5v0c8.1-0.3,14.6-6.9,14.6-15.1
		C941.6,161.1,935.1,154.4,927,154.1"/>
	<path class="st1" d="M893.6,193.5h47.8c4.5,0,8.3-3.9,8.3-8.6c0-4.7-3.7-8.6-8.3-8.6h-47.8c-4.5,0-8.3,3.9-8.3,8.6
		C885.3,189.6,889,193.5,893.6,193.5"/>
</g>
<g id="Clouds-Left">
	<path class="st2" d="M262.6,163.3L262.6,163.3l-3.4,0c0,0.2,0,0.5,0,0.7c0,5-4.1,9.1-9.1,9.1h-20c0,0,0,0.1,0,0.1
		c0,7.2-5.7,13-12.7,13.2v0h-5.8h-4h0c-3.4,0-6.2,2.8-6.2,6.2c0,3.4,2.8,6.2,6.2,6.2h30.9v0c0.1,0,0.1,0,0.2,0h0.9h0h0h0.3v0
		c4.3,0.1,7.8,3.7,7.8,8.1c0,4.4-3.5,7.9-7.8,8.1v0h-8.2c0,0,0,0.1,0,0.1c0,4.4-3.5,7.9-7.8,8.1v0h-40c-4.5,0-8.1-3.6-8.1-8.1
		c0-3.8,2.6-6.9,6-7.8H164c0,0,0,0,0,0.1c0,4.5-3.6,8.1-8,8.3v0h-41.1c-4.6,0-8.3-3.7-8.3-8.3c0-4,2.8-7.3,6.5-8.1h15.3v0
		c5.5-0.2,9.9-4.7,9.9-10.3c0-5.6-4.4-10.1-9.9-10.3v0h-0.3h0h0h-27.5c-7.6-0.5-13.7-6.8-13.7-14.6c0-0.2,0-0.5,0-0.7H56.9
		c-5.7,0-10.2-4.6-10.2-10.3c0-5.7,4.6-10.3,10.2-10.3h0h43.9c0,0,0,0,0,0h4.1v0c4.6-0.2,8.3-3.9,8.3-8.6s-3.7-8.4-8.3-8.6v0h-0.3
		c0,0,0,0,0,0l0,0h-20c-4.9-1.2-8.6-5.6-8.6-10.8c0-6.1,5-11.1,11.1-11.1c0,0,0,0,0,0h19.5c0.1-6,5-10.9,11.1-10.9h0h54.7h0h0h0.4v0
		c6,0.2,10.7,5.1,10.7,11.1c0,0,0,0,0,0.1H211h0h0h29.4h0h0h0.5v0c7.2,0.2,13.1,5.8,14,12.8h6.8c0,0,0,0,0,0s0,0,0,0h0.8v0
		c12.4,0.4,22.3,10.6,22.3,23.2C284.9,152.7,275,162.9,262.6,163.3"/>
	<g id="Clouds-Left-Bottom">
		<path id="cloud_15_" class="st3" d="M139.5,188h60.2c4.8,0,8.7-3.9,8.7-8.7v-2.6c0-4.8-3.9-8.7-8.7-8.7h-60.2
			c-4.8,0-8.7,3.9-8.7,8.7v2.6C130.9,184.1,134.8,188,139.5,188z"/>
		<path id="cloud_14_" class="st3" d="M98.3,188h10.9c4.8,0,8.7-3.9,8.7-8.7v-2.6c0-4.8-3.9-8.7-8.7-8.7H98.3
			c-4.8,0-8.7,3.9-8.7,8.7v2.6C89.7,184.1,93.6,188,98.3,188z"/>
	</g>
	<g id="Clouds-Left-Top">
		<path id="cloud_13_" class="st4" d="M238.1,117h41.1c3.9,0,7,3.1,7,7l0,0c0,3.9-3.1,7-7,7h-41.1c-3.9,0-7-3.1-7-7l0,0
			C231.1,120.1,234.2,117,238.1,117z"/>
		<path id="cloud_12_" class="st4" d="M255,108.3h5c3.3,0,6,2.8,6,6.3l0,0c0,3.5-2.7,6.3-6,6.3h-5c-3.3,0-6-2.8-6-6.3l0,0
			C249,111.1,251.7,108.3,255,108.3z"/>
	</g>
</g>
</svg>
